<?xml version="1.0" standalone="no"?>
<!DOCTYPE svg PUBLIC "-//W3C//DTD SVG 20010904//EN"
 "http://www.w3.org/TR/2001/REC-SVG-20010904/DTD/svg10.dtd">
<svg version="1.0" xmlns="http://www.w3.org/2000/svg"
 width="1500.000000pt" height="1500.000000pt" viewBox="0 0 1500.000000 1500.000000"
 preserveAspectRatio="xMidYMid meet">
<metadata>
Created by potrace 1.16, written by Peter Selinger 2001-2019
</metadata>
<g transform="translate(0.000000,1500.000000) scale(0.100000,-0.100000)"
fill="#000000" stroke="none">
<path d="M7989 14871 l-24 -29 -170 10 c-308 17 -845 -4 -1190 -47 -860 -108
-1633 -343 -2400 -730 -573 -289 -1066 -624 -1555 -1055 -294 -259 -686 -676
-925 -985 -845 -1088 -1364 -2388 -1499 -3755 -54 -538 -45 -1127 25 -1660
166 -1279 648 -2455 1425 -3480 170 -225 485 -592 497 -580 4 5 162 292 416
757 69 128 129 232 132 233 3 0 40 -41 82 -91 l77 -92 -24 -41 c-13 -22 -65
-117 -116 -211 -51 -93 -104 -190 -118 -215 -13 -25 -83 -152 -155 -284 l-131
-239 88 -81 87 -81 -28 -28 -28 -27 58 0 57 0 87 -78 c274 -245 648 -525 970
-725 1463 -912 3208 -1278 4923 -1031 1429 205 2782 845 3858 1822 1236 1124
2053 2642 2306 4282 93 604 110 1235 50 1845 -145 1488 -746 2894 -1725 4035
-135 158 -268 300 -279 300 -5 0 -68 -75 -141 -167 -899 -1137 -2173 -2733
-2181 -2733 -14 0 -2 60 29 145 21 56 26 92 29 179 3 147 11 159 121 167 151
11 254 92 339 264 44 91 44 91 44 201 l0 110 361 455 c1012 1272 1213 1525
1222 1537 12 16 -34 65 -213 226 -967 871 -2174 1474 -3453 1725 -264 52 -607
100 -802 113 -35 3 -40 6 -37 25 2 14 -4 26 -17 32 -31 17 -47 13 -72 -18z
m-198 -1431 c405 -41 852 -170 1252 -362 70 -34 125 -63 123 -65 -2 -2 -44 7
-92 22 -182 53 -678 144 -1094 201 -153 21 -492 24 -630 6 -226 -30 -465 -98
-635 -178 -109 -52 -110 -52 -30 0 99 65 244 138 376 191 63 24 112 45 109 45
-3 0 -120 -9 -260 -20 -140 -11 -268 -20 -285 -20 -29 0 -28 1 15 21 143 65
381 129 565 153 133 17 444 20 586 6z m-2100 -654 c-44 -75 -129 -263 -264
-581 -80 -191 -88 -205 -83 -155 3 30 8 104 12 164 8 125 1 130 -46 36 -51
-101 -75 -213 -98 -455 l-8 -80 -12 66 c-16 89 -15 253 2 336 43 204 136 371
305 546 73 76 221 200 229 192 1 -1 -15 -32 -37 -69z m5523 -219 c219 -155
547 -424 541 -443 -2 -7 -144 -188 -315 -403 -211 -264 -317 -390 -327 -387
-7 3 -51 38 -97 78 l-83 73 -17 75 c-50 221 -114 408 -188 552 l-40 77 187
236 c106 134 193 235 201 233 7 -2 69 -43 138 -91z m-7459 -139 c48 -117 88
-218 89 -224 0 -6 -46 -48 -104 -94 -674 -535 -1223 -1216 -1600 -1985 -100
-205 -151 -320 -226 -520 l-52 -140 -251 -3 -250 -2 59 174 c152 443 386 923
649 1331 392 608 886 1143 1471 1593 58 45 110 81 116 82 6 0 51 -96 99 -212z
m8636 -950 c418 -500 772 -1092 1013 -1694 l36 -92 -159 -268 c-95 -160 -162
-262 -165 -254 -3 8 -31 89 -61 178 -216 639 -573 1278 -1003 1795 l-74 88 34
43 c214 272 264 333 270 329 4 -2 53 -58 109 -125z m-7152 -304 c-11 -104 -7
-321 7 -444 8 -69 0 -62 -21 15 -26 99 -36 232 -24 330 9 86 38 219 45 212 2
-2 -1 -53 -7 -113z m2089 -109 c118 -27 357 -60 497 -70 50 -3 110 -8 134 -11
l43 -6 -7 83 c-6 68 -5 80 6 73 8 -4 88 -54 178 -111 90 -57 166 -101 168 -99
3 3 -11 50 -31 106 -20 56 -36 103 -36 106 0 11 39 2 85 -20 61 -28 147 -93
239 -179 l69 -65 200 19 c110 11 205 18 211 16 19 -8 -96 -111 -164 -147 -91
-49 -191 -94 -286 -129 l-82 -30 5 57 c7 71 -8 127 -50 188 -38 56 -57 66 -57
30 0 -29 -43 -82 -87 -108 l-29 -17 4 34 c3 28 -3 41 -38 79 -23 25 -58 55
-76 67 -40 24 -29 30 -150 -78 -45 -40 -84 -73 -88 -73 -3 0 -6 13 -6 29 0 33
-16 53 -63 79 -25 13 -49 16 -107 12 -41 -2 -140 -4 -220 -5 -127 0 -154 3
-219 24 -92 30 -181 89 -232 153 -21 28 -39 53 -39 58 0 4 27 -3 61 -17 33
-13 109 -35 167 -48z m4590 -244 c640 -818 1023 -1789 1129 -2861 23 -240 23
-738 -1 -980 -90 -921 -357 -1697 -849 -2468 -40 -61 -74 -112 -77 -112 -3 0
-47 36 -97 80 l-91 81 84 134 c629 1001 903 2195 768 3360 -98 851 -387 1635
-865 2340 -60 88 -149 212 -198 275 -50 63 -89 118 -88 122 1 5 36 51 77 103
l75 95 25 -32 c14 -17 62 -79 108 -137z m-4862 64 c10 -26 141 -125 217 -165
155 -80 338 -91 513 -32 l89 31 -45 -40 c-25 -21 -75 -55 -112 -75 -38 -19
-68 -37 -68 -39 0 -6 49 3 148 27 118 28 215 71 296 129 l69 51 -7 -33 c-10
-49 -41 -110 -82 -157 -40 -47 -40 -48 60 -27 99 20 210 59 248 86 l31 23 -6
-39 c-9 -53 -49 -133 -92 -179 -19 -21 -33 -42 -29 -45 10 -11 326 -4 409 8
187 29 325 75 438 148 l69 44 -30 -56 c-26 -47 -28 -57 -15 -62 8 -3 68 -3
132 0 222 11 377 76 523 217 48 47 86 78 84 70 -3 -8 -12 -55 -21 -105 -26
-145 -66 -305 -76 -305 -6 0 -8 -4 -5 -9 3 -5 1 -23 -5 -40 -6 -18 -9 -34 -6
-37 12 -13 315 298 372 381 l58 85 24 -36 c14 -19 31 -51 39 -70 14 -33 13
-37 -13 -82 -59 -100 -231 -259 -411 -377 -156 -103 -216 -265 -216 -585 0
-181 21 -319 90 -603 22 -89 34 -163 34 -207 0 -80 -27 -176 -64 -224 -49 -65
-157 -96 -271 -78 -32 5 -66 6 -75 2 -8 -4 -27 -13 -43 -19 -54 -21 -54 -49
-3 -146 25 -48 46 -93 46 -100 0 -7 26 -31 57 -52 66 -45 110 -115 99 -157
-11 -45 -50 -56 -227 -61 -88 -2 -178 -7 -198 -10 -20 -3 1 8 49 25 48 17 70
28 50 25 l-35 -4 28 15 c42 23 32 27 -11 5 -41 -21 -186 -61 -221 -61 -12 0
-21 -3 -21 -8 0 -4 -24 -16 -52 -27 -40 -15 -82 -20 -173 -21 -150 -2 -145 -1
-145 -19 0 -24 96 -65 155 -66 46 -2 47 -2 15 -8 -44 -8 -31 -17 40 -26 74
-10 97 -23 163 -95 61 -65 81 -114 92 -218 11 -104 -25 -108 -95 -10 -67 92
-138 161 -198 190 -66 33 -86 28 -79 -19 l6 -33 -35 26 c-49 38 -42 22 14 -30
36 -34 53 -61 70 -108 34 -98 32 -109 -44 -186 -104 -103 -138 -200 -86 -245
60 -52 95 -44 128 28 20 47 28 55 58 61 41 7 93 1 153 -17 51 -16 88 -2 153
57 22 20 40 34 40 31 0 -16 -97 -252 -127 -310 -44 -84 -144 -193 -226 -247
-34 -22 -98 -52 -142 -67 -70 -23 -97 -27 -211 -27 -128 -1 -131 0 -167 27
-20 15 -68 65 -106 110 -65 78 -76 86 -158 121 -227 98 -420 231 -565 388
-148 161 -348 318 -477 375 -68 30 -146 39 -181 21 -59 -32 -92 -135 -71 -216
7 -25 31 -62 61 -95 76 -83 194 -138 381 -176 97 -20 140 -44 216 -121 88 -87
116 -197 73 -285 -28 -59 -99 -127 -203 -197 -201 -135 -220 -187 -56 -153
106 21 189 47 309 94 142 56 273 91 342 91 50 0 60 -3 73 -24 15 -22 15 -28 1
-61 -21 -51 -94 -151 -148 -203 l-44 -42 -1144 2 -1144 3 -12 60 c-7 33 -18
106 -24 163 -10 84 -10 106 1 121 8 10 42 55 76 100 111 145 162 269 203 488
24 130 36 162 83 223 99 129 211 464 262 780 40 252 40 600 0 935 -20 169 -22
160 23 130 20 -13 82 -42 136 -64 54 -22 109 -50 123 -63 40 -37 65 -97 71
-168 6 -79 20 -56 21 36 1 49 -5 72 -28 115 -27 51 -32 55 -102 82 -123 46
-251 100 -263 111 -6 6 -49 40 -96 75 -96 72 -177 166 -271 315 -147 234 -219
461 -219 686 0 205 101 405 239 472 36 17 63 22 126 22 91 -1 188 -33 286 -96
51 -33 57 -40 78 -104 13 -38 53 -136 90 -219 l66 -150 3 75 4 75 18 -57 c18
-60 79 -152 106 -162 12 -4 15 -2 10 9 -6 17 3 75 13 75 3 -1 16 -22 28 -48
12 -26 42 -69 66 -97 l44 -50 6 -100 c7 -134 45 -301 122 -530 70 -210 93
-270 102 -262 3 4 9 27 14 53 11 59 63 167 128 265 51 77 51 77 37 115 -33 95
-41 188 -41 489 0 165 4 341 9 390 l9 90 24 -73 c14 -40 27 -72 29 -70 2 2 -2
46 -8 97 -14 111 -1 232 33 310 22 52 35 63 45 36z m6497 -1522 c544 -1700
325 -3576 -596 -5103 -330 -547 -724 -1022 -1220 -1469 -33 -29 -60 -51 -62
-49 -2 2 -11 109 -20 238 l-17 235 70 165 c68 158 75 169 157 262 542 610 926
1273 1175 2028 209 633 302 1254 287 1925 -10 447 -57 808 -158 1231 l-31 131
173 292 c96 160 176 291 180 291 3 0 31 -80 62 -177z m-3913 -1597 c-20 -25
-98 -58 -153 -65 -42 -5 -51 -10 -49 -24 6 -33 -17 -165 -38 -221 -19 -51
-109 -166 -130 -166 -4 0 -10 21 -14 48 -3 26 -9 59 -12 73 -5 22 -1 28 24 38
17 7 33 19 35 26 8 19 -28 71 -62 91 -69 41 -16 117 107 153 37 11 103 25 147
31 44 6 94 14 110 19 43 13 49 13 35 -3z m-6717 -473 c7 -198 27 -401 60 -600
l23 -133 -117 0 -117 0 -21 138 c-40 264 -61 492 -61 675 l0 97 113 0 114 0 6
-177z m787 -1283 c135 -226 248 -410 251 -410 3 0 89 183 191 408 l184 407
343 3 342 2 -86 -95 -86 -96 6 -77 c7 -89 85 -1536 85 -1577 0 -19 17 -45 62
-91 33 -35 67 -64 73 -64 18 0 84 76 100 114 8 18 39 142 70 277 31 134 103
441 161 682 57 241 104 443 104 448 0 6 -22 34 -50 63 -28 29 -50 56 -50 59 0
4 160 7 355 7 195 0 355 -4 355 -8 0 -4 -22 -30 -50 -57 -27 -27 -50 -57 -50
-66 0 -12 329 -1095 422 -1389 6 -20 41 -66 81 -108 l71 -72 -259 2 -260 3
-40 128 -40 128 -35 -5 c-19 -3 -107 -25 -195 -48 l-160 -43 -13 -60 c-7 -33
-15 -70 -18 -82 l-4 -23 -549 0 -548 0 -6 63 c-3 34 -18 263 -34 509 -15 246
-31 444 -34 440 -4 -4 -87 -155 -184 -337 -98 -181 -180 -333 -184 -337 -3 -4
-112 147 -241 336 -129 189 -236 343 -238 341 -2 -1 16 -229 38 -505 23 -276
39 -504 37 -506 -2 -2 -148 -3 -325 -2 l-321 3 75 82 75 83 -60 657 c-34 362
-69 741 -78 843 l-16 185 -99 98 -100 97 343 0 344 -1 245 -409z m7360 130
c36 -151 69 -281 71 -289 3 -7 56 117 119 277 l115 292 383 0 c210 0 382 -2
382 -5 0 -2 -47 -41 -104 -85 -58 -44 -113 -95 -124 -113 -11 -17 -95 -215
-186 -440 l-167 -407 101 -418 c91 -383 102 -419 127 -441 16 -13 57 -50 93
-83 l65 -58 -366 0 -366 0 -70 272 -70 272 -108 -272 -109 -272 -365 0 c-304
0 -363 2 -351 13 8 8 56 45 105 84 l90 71 164 417 163 416 -107 417 c-60 229
-114 429 -121 444 -8 15 -22 33 -33 40 -10 7 -51 43 -90 81 l-72 67 382 -2
382 -3 67 -275z m-3290 -341 l0 -270 -26 20 c-14 11 -34 31 -46 46 -28 35 -93
67 -142 68 -23 1 -89 0 -148 -1 l-108 -2 0 -576 0 -575 48 -52 c89 -97 119
-87 -258 -87 l-333 0 66 69 67 69 0 194 c0 106 -3 365 -7 576 l-6 382 -163 0
-164 0 -70 -66 c-39 -37 -72 -65 -74 -63 -2 2 -7 124 -11 272 l-7 267 691 0
691 0 0 -271z m1520 264 c0 -3 -31 -38 -68 -77 l-69 -71 -7 -180 c-3 -99 -11
-308 -17 -465 -5 -157 -13 -288 -17 -291 -4 -4 -40 -14 -80 -24 -40 -9 -75
-21 -78 -26 -4 -8 114 -357 138 -404 6 -11 40 -50 77 -88 l66 -67 -255 2 -254
3 -88 234 c-49 129 -90 236 -92 238 -2 3 -21 0 -42 -5 -22 -6 -51 -13 -66 -16
l-28 -6 0 -221 c0 -168 -3 -221 -13 -224 -7 -3 -126 -4 -265 -3 l-253 3 59 66
59 67 6 298 c6 265 12 1067 8 1103 0 7 -33 46 -73 87 l-71 74 711 0 c392 0
712 -3 712 -7z m810 2 c0 -3 -29 -37 -65 -75 -43 -47 -66 -81 -69 -103 -10
-62 -75 -1358 -69 -1375 3 -9 33 -45 67 -79 l60 -63 -344 0 -345 0 74 68 c70
64 74 70 77 117 7 76 54 1232 54 1304 l0 63 -65 67 c-36 37 -65 71 -65 74 0 4
155 7 345 7 190 0 345 -2 345 -5z m-3842 -433 c-2 -25 -14 4 -50 120 l-47 153
42 43 42 43 8 -163 c4 -90 6 -178 5 -196z m484 -232 c1 -66 1 -174 0 -241 l-4
-120 -81 6 c-101 8 -215 31 -233 45 -13 12 -64 153 -64 180 0 8 55 68 122 132
l123 118 67 0 66 0 4 -120z m-2958 -649 c48 -68 187 -246 286 -363 l32 -38
-150 0 -151 0 -22 31 c-19 27 -24 55 -35 188 -7 86 -15 180 -18 209 -2 28 -3
52 -1 52 2 0 28 -35 59 -79z m7176 -541 c10 -5 74 -106 141 -225 68 -118 127
-211 130 -207 4 4 46 99 94 212 49 113 91 208 95 213 3 4 126 6 273 5 l267 -3
-64 -76 c-60 -73 -71 -95 -235 -479 -130 -306 -171 -412 -171 -443 0 -23 11
-179 25 -347 14 -167 25 -318 25 -334 0 -23 19 -48 92 -122 l92 -94 -377 0
c-207 0 -377 3 -377 7 0 3 27 37 60 74 33 37 64 77 68 88 4 12 -5 187 -19 389
l-27 367 -234 408 c-200 350 -243 419 -306 487 l-73 80 168 3 c92 1 205 4 251
5 46 1 92 -2 102 -8z m-7363 -79 c-42 -43 -77 -81 -77 -83 0 -3 -27 -340 -60
-749 -33 -409 -60 -763 -60 -786 0 -36 8 -51 65 -122 l66 -81 -372 0 -373 0
87 89 c58 58 87 96 87 111 0 12 29 350 65 751 36 400 65 744 65 765 0 31 -10
48 -66 110 l-66 74 358 0 357 0 -76 -79z m877 -325 c167 -370 181 -397 188
-365 3 19 14 178 23 354 8 176 18 341 21 368 l6 47 236 0 236 0 -64 -65 -64
-65 -8 -152 c-5 -84 -19 -376 -32 -648 -27 -557 -31 -513 48 -589 63 -61 62
-61 -196 -61 -128 0 -238 4 -244 8 -7 4 -94 182 -195 396 -170 361 -184 386
-191 355 -4 -19 -17 -194 -29 -389 -12 -195 -23 -356 -24 -358 -1 -1 -109 -1
-240 0 l-238 3 61 67 c41 45 63 78 66 100 7 42 86 1191 86 1239 0 29 -10 47
-56 97 l-56 62 242 -2 243 -3 181 -399z m1801 172 c-4 -128 -9 -235 -11 -237
-2 -2 -33 23 -68 57 l-64 62 -196 0 -196 0 0 -120 0 -120 220 0 c172 0 220 -3
220 -13 0 -25 -82 -332 -92 -344 -8 -10 -58 -13 -188 -13 l-178 0 -6 -62 c-3
-35 -8 -140 -11 -234 l-5 -171 28 -39 c16 -21 36 -45 46 -53 9 -8 22 -23 27
-33 9 -17 -3 -18 -293 -18 l-302 0 62 63 c46 47 64 72 68 98 2 19 13 252 24
519 11 267 23 546 26 621 l7 136 -57 61 c-31 34 -56 64 -56 67 0 3 225 5 501
5 l501 0 -7 -232z m628 169 l-61 -63 -6 -174 c-3 -96 -8 -389 -11 -651 l-5
-475 29 -40 c15 -21 43 -52 60 -68 17 -17 31 -33 31 -38 0 -4 -137 -8 -305 -8
-168 0 -305 3 -305 7 0 4 28 36 63 71 l62 63 6 287 c4 158 10 452 14 654 l7
367 -62 66 -63 65 303 0 303 0 -60 -63z m625 51 c5 -7 98 -184 207 -393 108
-209 201 -384 206 -389 5 -6 9 150 9 392 l0 402 237 0 236 0 -61 -64 -62 -64
0 -119 c0 -65 5 -359 10 -653 l10 -535 65 -61 c36 -34 65 -67 65 -73 0 -8 -71
-11 -239 -11 -198 0 -242 3 -254 15 -9 8 -72 122 -143 252 -70 131 -161 301
-203 378 l-76 140 -5 -390 -5 -390 -242 -3 c-134 -1 -243 1 -243 6 0 4 16 23
35 42 19 19 46 50 59 69 l24 36 7 640 6 640 -22 30 c-12 17 -40 49 -63 73
l-40 42 236 0 c176 0 238 -3 246 -12z m1572 7 c0 -3 -22 -29 -49 -59 -30 -33
-52 -68 -56 -88 -6 -29 11 -638 31 -1129 l6 -157 59 -65 c32 -36 59 -68 59
-71 0 -3 -135 -6 -300 -6 -165 0 -300 3 -300 8 0 4 26 36 57 71 l57 63 -13
637 c-7 350 -15 645 -18 656 -3 11 -33 48 -66 83 l-61 62 297 0 c163 0 297 -2
297 -5z m1255 -7 c6 -15 33 -451 29 -457 -2 -2 -29 20 -61 49 -32 28 -68 56
-81 61 -13 5 -79 9 -148 9 l-124 0 0 -26 c0 -48 49 -988 54 -1028 4 -32 16
-51 67 -102 l63 -64 -309 0 -309 0 51 53 c28 28 56 62 62 74 8 16 6 145 -9
495 -11 260 -23 501 -26 536 l-6 63 -139 -3 -140 -3 -56 -58 c-31 -32 -59 -55
-63 -50 -4 4 -11 110 -14 236 l-7 227 581 0 c455 0 582 -3 585 -12z m-5155
-746 c21 -17 22 -25 21 -142 -1 -69 -3 -126 -5 -128 -2 -1 -18 5 -35 15 -32
17 -32 20 -27 68 3 28 6 85 6 128 0 42 4 77 9 77 5 0 19 -8 31 -18z m5669
-182 c55 -96 61 -125 34 -147 -116 -92 -379 -268 -585 -392 l-36 -22 -61 57
c-60 55 -61 57 -61 109 l0 53 73 42 c118 70 344 221 462 308 60 45 112 82 116
82 4 0 30 -40 58 -90z m-4766 -231 l217 -72 0 -72 c0 -69 -1 -72 -38 -108
l-37 -37 -200 68 c-160 54 -200 70 -199 85 0 9 1 60 2 112 2 83 4 95 20 95 9
0 115 -32 235 -71z m4841 -246 c2 -10 8 -75 12 -145 l6 -127 -152 -178 -152
-178 108 -5 109 -5 -135 -80 c-388 -229 -872 -442 -1318 -580 -276 -85 -821
-210 -839 -192 -3 4 326 569 341 585 2 1 77 22 167 47 428 118 906 311 1249
504 62 36 101 51 126 51 30 0 34 3 25 14 -9 11 15 30 126 99 76 47 176 112
223 146 47 33 88 60 92 61 4 0 9 -8 12 -17z m-3181 -99 c32 -58 57 -110 57
-115 0 -5 -36 -9 -80 -9 l-80 0 0 108 c0 60 3 112 7 115 22 23 43 1 96 -99z
m2027 -230 c-162 -75 -655 -255 -664 -243 -1 2 33 64 76 137 l80 132 281 -1
282 0 -55 -25z m-5850 -70 c49 -36 88 -69 86 -72 -2 -4 -104 -189 -226 -412
-122 -223 -225 -409 -230 -414 -6 -6 -127 52 -189 93 -10 7 20 69 140 290
l154 281 78 0 79 0 -34 41 c-64 79 -64 66 -7 167 28 51 52 92 55 92 2 0 44
-30 94 -66z"/>
<path d="M5685 10664 c-73 -26 -137 -83 -175 -158 -34 -67 -35 -72 -34 -175 1
-58 9 -140 18 -181 22 -102 59 -226 64 -212 2 6 -9 92 -23 189 -40 263 -30
322 75 425 55 54 78 70 124 83 117 34 207 -18 295 -170 48 -82 51 -79 15 13
-40 100 -76 146 -136 176 -60 30 -155 34 -223 10z"/>
<path d="M8630 10284 c-19 -2 -71 -11 -115 -20 -44 -9 -131 -23 -195 -30
l-115 -13 118 3 119 2 -44 -23 c-23 -13 -34 -21 -23 -19 11 3 61 15 110 27 90
21 280 37 310 25 14 -5 14 -8 -1 -31 -10 -16 -17 -45 -16 -71 0 -36 -3 -44
-18 -44 -33 0 -102 30 -151 65 -44 31 -56 35 -112 35 -88 0 -103 -16 -23 -23
50 -5 89 -17 159 -52 58 -29 141 -58 226 -80 74 -19 149 -44 167 -54 l33 -19
6 63 c16 142 -22 197 -164 239 -55 16 -207 27 -271 20z"/>
<path d="M5940 10174 c-62 -17 -126 -51 -155 -84 l-20 -23 22 12 c39 20 46 14
41 -34 -6 -47 -1 -54 21 -32 8 7 7 2 -2 -13 -22 -34 -32 -103 -18 -126 8 -16
10 -10 11 29 0 59 17 93 70 141 22 20 38 40 36 45 -8 13 105 60 180 76 36 7
69 16 72 19 12 13 -206 4 -258 -10z"/>
<path d="M5771 9937 c-1 -26 6 -64 14 -84 19 -44 19 -44 -1 -36 -34 13 -7 -23
46 -59 37 -26 64 -38 88 -38 68 0 111 -21 152 -73 49 -61 119 -123 154 -137
32 -12 113 -12 141 0 17 7 15 9 -12 9 -27 1 -33 5 -33 22 0 17 5 20 25 17 33
-7 32 3 -5 27 -64 43 -114 136 -135 250 l-13 70 -1 -66 c-1 -74 20 -148 56
-197 33 -44 55 -99 43 -107 -18 -11 -80 27 -159 101 -87 80 -126 103 -213 129
-65 18 -102 54 -117 113 -5 20 -14 53 -19 72 l-10 35 -1 -48z"/>
<path d="M8707 8934 c-34 -33 -49 -105 -34 -153 9 -26 24 -42 54 -59 43 -23
121 -95 161 -147 24 -31 24 -29 -5 50 -15 39 -14 83 3 196 8 61 -15 113 -58
128 -52 18 -93 13 -121 -15z"/>
<path d="M9225 8585 c-33 -8 -78 -14 -100 -15 -27 0 -35 -3 -26 -9 15 -10
-105 -41 -155 -41 -21 0 -25 -3 -17 -11 16 -16 104 -13 191 5 104 23 171 20
267 -10 46 -14 92 -24 102 -21 17 4 17 4 -2 12 -11 4 -38 25 -60 46 -26 25
-56 42 -85 48 -25 6 -47 10 -50 10 -3 0 -32 -7 -65 -14z"/>
<path d="M5771 5243 c-19 -74 -69 -288 -67 -290 1 -2 169 38 173 42 4 2 -87
285 -92 285 -2 0 -9 -17 -14 -37z"/>
<path d="M8440 5542 c0 -66 -3 -166 -6 -224 l-7 -105 144 24 c79 13 147 29
151 36 4 7 8 69 8 138 0 69 3 154 6 188 l7 61 -152 0 -151 0 0 -118z"/>
</g>
</svg>
